HIERARCHY
ROOT hip
{
	OFFSET 0.000000 0.000000 0.000000 
	CHANNELS 6 Xposition Yposition Zposition Xrotation Zrotation Yrotation
	JOINT abdomen
	{
		OFFSET 0.000000 3.402643 0.000000 
		CHANNELS 3 Xrotation Zrotation Yrotation
		JOINT chest
		{
			OFFSET 0.000000 8.438565 -0.680529 
			CHANNELS 3 Xrotation Zrotation Yrotation
			JOINT neck
			{
				OFFSET 0.000000 10.207942 -0.272212 
				CHANNELS 3 Xrotation Zrotation Yrotation
				JOINT head
				{
					OFFSET 0.000000 3.130431 0.000000 
					CHANNELS 3 Xrotation Zrotation Yrotation
					End Site
					{
						OFFSET 0.000000 3.130435 0.000000 
					}
				}
			}
			JOINT lCollar
			{
				OFFSET 3.470700 6.669187 -0.816635 
				CHANNELS 3 Yrotation Zrotation Xrotation
				JOINT lShldr
				{
					OFFSET 3.198488 0.000000 0.000000 
					CHANNELS 3 Zrotation Yrotation Xrotation
					JOINT lForeArm
					{
						OFFSET 10.139888 0.000000 0.000000 
						CHANNELS 3 Yrotation Zrotation Xrotation
						JOINT lHand
						{
							OFFSET 8.370511 0.000000 0.000000 
							CHANNELS 3 Zrotation Yrotation Xrotation
							End Site
							{
								OFFSET 4.083176 0.000000 0.000000 
							}
						}
					}
				}
			}
			JOINT rCollar
			{
				OFFSET -3.470700 6.669187 -0.816635 
				CHANNELS 3 Yrotation Zrotation Xrotation
				JOINT rShldr
				{
					OFFSET -3.198488 0.000000 0.000000 
					CHANNELS 3 Zrotation Yrotation Xrotation
					JOINT rForeArm
					{
						OFFSET -10.139888 0.000000 0.000000 
						CHANNELS 3 Yrotation Zrotation Xrotation
						JOINT rHand
						{
							OFFSET -8.370511 0.000000 0.000000 
							CHANNELS 3 Zrotation Yrotation Xrotation
							End Site
							{
								OFFSET -4.083176 0.000000 0.000000 
							}
						}
					}
				}
			}
		}
	}
	JOINT lThigh
	{
		OFFSET 5.308129 -1.633274 1.361059 
		CHANNELS 3 Xrotation Zrotation Yrotation
		JOINT lShin
		{
			OFFSET -2.041588 -20.007561 0.000000 
			CHANNELS 3 Xrotation Zrotation Yrotation
			JOINT lFoot
			{
				OFFSET 0.000000 -19.190928 -1.224953 
				CHANNELS 3 Xrotation Yrotation Zrotation
				End Site
				{
					OFFSET 0.000000 -2.449906 4.627600 
				}
			}
		}
	}
	JOINT rThigh
	{
		OFFSET -5.308129 -1.633274 1.361059 
		CHANNELS 3 Xrotation Zrotation Yrotation
		JOINT rShin
		{
			OFFSET 2.041588 -20.007561 0.000000 
			CHANNELS 3 Xrotation Zrotation Yrotation
			JOINT rFoot
			{
				OFFSET 0.000000 -19.190928 -1.224953 
				CHANNELS 3 Xrotation Yrotation Zrotation
				End Site
				{
					OFFSET 0.000000 -2.449906 4.627600 
				}
			}
		}
	}
}
MOTION
Frames: 18
Frame Time: 0.016667
-74.321655 54.945263 -82.724701 -7.246094 7.246093 30.400391 0.000000 0.000000 0.000000 4.365233 -4.902344 4.414062 10.966797 -7.939453 -31.083986 12.382813 0.156250 33.330090 8.906251 -10.869141 5.597544 -55.380859 -4.619141 19.492189 -48.750000 -9.853516 57.050781 1.757813 9.580078 -23.914389 -9.775390 14.912111 6.227956 35.722656 1.406250 47.080318 56.367184 22.353516 -49.208984 -12.978517 3.144531 62.128902 -3.825478 6.955739 8.851342 15.947741 -5.211247 -38.046139 -0.815811 47.799267 -1.499539 0.262876 -3.967564 -6.001403 28.520029 0.025828 -21.943701 -17.364548 -0.495978 7.146462 
-74.333267 54.949047 -82.787590 -7.255859 7.265779 30.391319 0.000000 0.000000 0.000000 4.501953 -4.785157 4.384766 11.044922 -7.861328 -31.114613 12.207031 0.214844 33.359375 8.896484 -10.771485 5.695185 -55.507813 -5.390625 19.892578 -48.740234 -10.000001 56.378651 2.324219 9.384766 -23.232422 -9.833984 15.019533 6.374423 35.644531 1.582031 47.031387 56.308590 22.353516 -49.101563 -13.105468 3.193359 62.100155 -3.845482 6.859868 8.789328 15.829907 -5.160296 -37.952961 -0.600847 47.796192 -1.605804 0.184445 -3.995586 -5.976475 28.540348 0.021029 -21.963617 -17.320356 -0.524493 7.118442 
-74.341537 54.950451 -82.862526 -7.216797 7.333985 30.380859 0.000000 0.000000 0.000000 4.658204 -4.697266 4.354669 11.162109 -7.792969 -31.182962 11.953125 0.332031 33.408176 8.886718 -10.712892 5.830078 -55.605473 -6.083984 20.253904 -48.828125 -10.087890 55.734135 2.802735 9.218750 -22.469141 -9.912109 15.136719 6.542969 35.517578 1.855469 46.992188 56.269531 22.382813 -49.072262 -13.222657 3.222656 62.089840 -3.857053 6.727244 8.686922 15.680731 -5.110417 -37.743103 -0.430860 47.698372 -1.721604 0.067608 -4.112123 -6.027490 28.615635 -0.014035 -21.890547 -17.274311 -0.599254 7.164156 
-74.349655 54.951851 -82.937599 -7.187500 7.392578 30.362585 0.000000 0.000000 0.000000 4.814453 -4.599609 4.335937 11.269531 -7.724609 -31.250000 11.689453 0.458984 33.447269 8.886718 -10.625001 5.957031 -55.703125 -6.777344 20.615236 -48.916016 -10.175780 55.089611 3.261719 9.072266 -21.718748 -9.980468 15.244141 6.706417 35.400391 2.109375 46.953487 56.240231 22.392578 -49.062500 -13.349609 3.281250 62.070873 -3.865400 6.558274 8.612304 15.522449 -5.062543 -37.609585 -0.187615 47.711338 -1.888373 -0.068676 -4.234450 -6.069442 28.719316 -0.031039 -21.812801 -17.238085 -0.628051 7.158199 
-74.355820 54.952553 -83.020943 -7.148438 7.470703 30.371096 0.000000 0.000000 0.000000 5.019531 -4.511719 4.316406 11.406251 -7.626953 -31.339186 11.347656 0.527344 33.505821 8.876953 -10.478516 6.113282 -55.859371 -7.343750 20.936253 -49.062504 -10.205079 54.511719 3.740235 8.935546 -20.965282 -10.078124 15.390624 6.931002 35.234375 2.441406 46.923824 56.230469 22.441406 -49.091797 -13.505859 3.310547 62.168533 -3.867591 6.406646 8.508184 15.354896 -5.012872 -37.465454 0.053484 47.632504 -2.010509 -0.156220 -4.385977 -6.151561 28.774611 -0.001892 -21.724815 -17.210867 -0.637989 7.141055 
-74.361862 54.953247 -83.104156 -7.128906 7.548829 30.372379 0.000000 0.000000 0.000000 5.224608 -4.414063 4.296875 11.542970 -7.539063 -31.427063 11.015625 0.625000 33.564453 8.867188 -10.332031 6.281049 -56.015625 -7.910156 21.268187 -49.199219 -10.214845 53.947041 4.218750 8.798719 -20.222900 -10.166015 15.527344 7.136057 35.058594 2.763672 46.894527 56.220703 22.490234 -49.124825 -13.671875 3.349610 62.265625 -3.856259 6.237518 8.424646 15.160996 -4.984553 -37.312389 0.310140 47.547142 -2.147123 -0.254305 -4.537938 -6.193058 28.869141 0.044289 -21.640709 -17.192495 -0.613840 7.098794 
-74.361862 54.953388 -83.193787 -7.089843 7.636718 30.401684 0.000000 0.000000 0.000000 5.458985 -4.277344 4.296147 11.650392 -7.519532 -31.573547 10.761719 0.771484 33.652283 8.945313 -10.234375 6.486110 -56.113281 -8.447267 21.572264 -49.345703 -10.224609 53.478298 4.638672 8.574219 -19.686043 -10.205078 15.576173 7.370425 34.970703 3.027344 46.855469 56.240234 22.490234 -49.193188 -13.808594 3.378906 62.490814 -3.846562 6.052370 8.359334 14.992281 -4.936946 -37.227081 0.508020 47.441780 -2.242018 -0.351663 -4.703829 -6.294829 28.990946 0.056129 -21.525621 -17.184761 -0.649595 7.111917 
-74.361710 54.953526 -83.283302 -7.060547 7.714845 30.431000 0.000000 0.000000 0.000000 5.703125 -4.140625 4.286404 11.777344 -7.480468 -31.700489 10.498048 0.917969 33.720863 9.052734 -10.136718 6.681406 -56.181641 -8.994141 21.853941 -49.482418 -10.234375 53.009548 5.068360 8.339844 -19.148975 -10.224608 15.634766 7.614555 34.873047 3.300781 46.816967 56.230465 22.470703 -49.257820 -13.955078 3.398438 62.725185 -3.855143 5.883723 8.235781 14.799326 -4.906381 -37.054455 0.774859 47.370281 -2.397952 -0.468919 -4.897201 -6.369067 29.115034 0.103683 -21.449535 -17.146675 -0.631816 7.076909 
-74.357780 54.956051 -83.366219 -7.041016 7.773438 30.478518 0.000000 0.000000 0.000000 5.966796 -3.964844 4.296875 11.884766 -7.490234 -31.886042 10.292969 1.044922 33.818363 9.179688 -10.029298 6.915762 -56.220703 -9.433595 22.119144 -49.599609 -10.224607 52.626957 5.458984 8.105469 -18.798828 -10.244141 15.703124 7.878216 34.736328 3.593750 46.806641 56.249996 22.451174 -49.384769 -14.082031 3.427734 62.988285 -3.824398 5.773776 8.241201 14.618381 -4.908691 -37.060150 0.964122 47.303833 -2.419996 -0.566603 -4.985438 -6.416319 29.173037 0.083854 -21.432341 -17.078161 -0.672985 7.118942 
-74.354004 54.958431 -83.449135 -7.021484 7.822266 30.517576 0.000000 0.000000 0.000000 6.230468 -3.779297 4.316407 11.982422 -7.490234 -32.052055 10.078125 1.181641 33.916222 9.326173 -9.931642 7.130590 -56.250000 -9.873048 22.381138 -49.697266 -10.234376 52.255859 5.830078 7.861328 -18.437498 -10.263672 15.781251 8.134767 34.609375 3.886719 46.787106 56.259766 22.421875 -49.525211 -14.208985 3.466797 63.281250 -3.817099 5.690646 8.179636 14.454926 -4.917305 -37.011120 1.159778 47.234524 -2.470743 -0.644463 -5.086262 -6.464573 29.182619 0.065498 -21.426689 -17.000042 -0.702092 7.145311 
-74.348816 54.970337 -83.518471 -6.962891 7.841796 30.556641 0.000000 0.000000 0.000000 6.455077 -3.603516 4.375001 12.060548 -7.480468 -32.257133 9.921876 1.308594 34.033428 9.501954 -9.824219 7.335649 -56.259766 -10.166015 22.558594 -49.794922 -10.205078 52.062275 6.162109 7.626953 -18.281250 -10.273438 15.878905 8.378906 34.570313 4.062500 46.455772 56.230465 22.343748 -49.374996 -14.287109 3.330078 63.671879 -3.748935 5.612732 8.234661 14.117338 -5.012947 -36.995785 1.481550 47.238804 -2.585257 -0.732004 -5.138822 -6.459923 29.182785 0.046152 -21.431545 -16.886509 -0.747460 7.139930 
-74.343643 54.982239 -83.587944 -6.914062 7.861328 30.577503 0.000000 0.000000 0.000000 6.689453 -3.427734 4.414062 12.119141 -7.490234 -32.442677 9.765625 1.425781 34.150631 9.687501 -9.736328 7.521183 -56.269531 -10.468750 22.713068 -49.892578 -10.195312 51.855476 6.484375 7.402343 -18.113976 -10.263672 15.957031 8.613280 34.531250 4.228516 46.133533 56.210938 22.255861 -49.248043 -14.355470 3.183594 64.042969 -3.689015 5.542078 8.280025 13.815687 -5.119791 -37.003033 1.777268 47.251862 -2.630197 -0.839492 -5.227410 -6.438192 29.154608 0.007539 -21.462019 -16.788250 -0.780069 7.175306 
-74.333542 55.003960 -83.649162 -6.738282 7.919922 30.615234 0.000000 0.000000 0.000000 6.835938 -3.330078 4.491621 12.216798 -7.519532 -32.637997 9.580078 1.601563 34.267578 9.873047 -9.775391 7.667674 -56.113281 -10.498047 22.841797 -50.019535 -10.166015 51.767582 6.572266 7.324218 -18.066406 -10.253906 16.044922 8.766832 34.570313 4.326172 45.664799 56.093754 22.167969 -48.939236 -14.326172 2.929688 64.229019 -3.590354 5.403489 8.322147 13.308133 -5.264271 -36.968357 2.198108 47.193844 -2.787556 -0.985595 -5.362958 -6.449310 29.126461 -0.040889 -21.494904 -16.680048 -0.804607 7.203846 
-74.323471 55.025806 -83.710243 -6.582032 7.958985 30.654299 0.000000 0.000000 0.000000 6.972655 -3.242188 4.560591 12.314454 -7.539063 -32.823544 9.394530 1.777344 34.394527 10.068359 -9.804688 7.794632 -55.957031 -10.537110 22.949217 -50.156250 -10.146484 51.679688 6.679688 7.255858 -18.026110 -10.234375 16.132813 8.925781 34.609375 4.394531 45.175781 55.996098 22.080078 -48.636478 -14.267578 2.666016 64.404755 -3.514294 5.270587 8.384683 12.793989 -5.414827 -36.942394 2.627208 47.142258 -2.886844 -1.131790 -5.508996 -6.431190 29.058159 -0.109230 -21.504978 -16.581011 -0.831359 7.242643 
-74.307487 55.049339 -83.763466 -6.357422 8.037109 30.684959 0.000000 0.000000 0.000000 7.050780 -3.203125 4.648437 12.451171 -7.509766 -33.046871 9.150391 1.943359 34.512054 10.195313 -9.863281 7.871094 -55.703125 -10.283202 22.998049 -50.283203 -10.117188 51.689453 6.660156 7.207030 -18.037107 -10.224608 16.250000 9.020704 34.560551 4.589844 44.893360 55.878906 22.070313 -48.538826 -14.238280 2.500000 64.394958 -3.483686 5.151096 8.467806 12.362168 -5.637895 -36.945671 3.160856 47.004314 -3.070110 -1.298051 -5.714942 -6.455778 29.028513 -0.109384 -21.496443 -16.530342 -0.805659 7.233908 
-74.291542 55.073009 -83.816559 -6.132813 8.124999 30.743563 0.000000 0.000000 0.000000 7.128904 -3.173828 4.726563 12.597657 -7.480469 -33.262985 8.896484 2.099609 34.619495 10.322265 -9.902344 7.949218 -55.439449 -10.029298 23.025644 -50.390625 -10.087892 51.708984 6.640625 7.158204 -18.046875 -10.244141 16.367188 9.128107 34.531250 4.775391 44.619949 55.761723 22.041016 -48.450932 -14.189453 2.343750 64.384766 -3.455985 4.987934 8.490702 11.954097 -5.824358 -36.899742 3.658883 46.922802 -3.260398 -1.444335 -5.920718 -6.528557 28.977942 -0.139364 -21.456945 -16.467451 -0.795035 7.271571 
-74.267433 55.093742 -83.855911 -5.927735 8.251954 30.781252 0.000000 0.000000 0.000000 7.226564 -3.164063 4.804149 12.734375 -7.470703 -33.507130 8.662109 2.236328 34.736328 10.458985 -9.931642 8.048559 -55.185547 -9.658202 22.988277 -50.439453 -10.068359 51.865234 6.562500 7.167968 -18.114017 -10.263672 16.455078 9.238281 34.472656 5.000000 44.355469 55.742184 21.992186 -48.427734 -14.208984 2.216797 64.414444 -3.590446 4.876577 8.587707 11.936770 -6.038655 -37.002262 4.079697 46.834579 -3.451216 -1.562360 -6.178261 -6.563942 28.975363 -0.169660 -21.395926 -16.422100 -0.850499 7.284475 
-74.243492 55.114475 -83.895279 -5.722657 8.369141 30.839844 0.000000 0.000000 0.000000 7.343750 -3.154297 4.901806 12.871094 -7.470703 -33.740234 8.437499 2.382812 34.853512 10.576172 -9.960938 8.146220 -54.951172 -9.267578 22.949219 -50.498047 -10.048828 52.011723 6.464844 7.158203 -18.203125 -10.273438 16.552734 9.365235 34.423832 5.234375 44.102451 55.722656 21.953129 -48.421623 -14.238280 2.080078 64.453476 -3.716866 4.778379 8.685385 11.919205 -6.272323 -37.125610 4.535587 46.705063 -3.621443 -1.688619 -6.420238 -6.627395 28.972368 -0.176536 -21.339855 -16.410437 -0.835905 7.292152 
